<?xml version="1.0" encoding="UTF-8" standalone="no"?>
<!-- Created with Inkscape (http://www.inkscape.org/) -->

<svg
   width="512"
   height="512"
   viewBox="0 0 135.46666 135.46667"
   version="1.1"
   id="svg1"
   xml:space="preserve"
   inkscape:version="1.3.2 (091e20e, 2023-11-25, custom)"
   sodipodi:docname="LogoONbrNoir.svg"
   inkscape:export-filename="OUT\LogoONbrNoir.svg"
   inkscape:export-xdpi="96"
   inkscape:export-ydpi="96"
   xmlns:inkscape="http://www.inkscape.org/namespaces/inkscape"
   xmlns:sodipodi="http://sodipodi.sourceforge.net/DTD/sodipodi-0.dtd"
   xmlns="http://www.w3.org/2000/svg"
   xmlns:svg="http://www.w3.org/2000/svg"><sodipodi:namedview
     id="namedview1"
     pagecolor="#ffffff"
     bordercolor="#000000"
     borderopacity="0.25"
     inkscape:showpageshadow="2"
     inkscape:pageopacity="0.0"
     inkscape:pagecheckerboard="0"
     inkscape:deskcolor="#d1d1d1"
     inkscape:document-units="mm"
     inkscape:zoom="2"
     inkscape:cx="253.75"
     inkscape:cy="255.75"
     inkscape:window-width="2560"
     inkscape:window-height="1377"
     inkscape:window-x="-8"
     inkscape:window-y="-8"
     inkscape:window-maximized="1"
     inkscape:current-layer="svg1" /><defs
     id="defs1" /><path
     style="fill:#ffffff"
     d="M 59.064648,127.33223 C 23.502433,121.84104 0.70938035,87.489167 9.5027392,52.63648 15.182499,30.124616 34.218934,12.530335 57.325029,8.4370895 63.379906,7.3644679 72.452565,7.3618621 78.474965,8.4310148 108.22256,13.712086 129.38434,40.0323 128.11669,70.173504 c -0.48803,11.604126 -3.93782,22.022389 -10.48823,31.674126 -3.20744,4.72602 -11.07198,12.55044 -15.74464,15.66432 -3.883151,2.58774 -10.534031,5.92691 -14.363271,7.21127 -6.413853,2.15128 -9.935681,2.69669 -18.279618,2.83089 -4.353188,0.07 -8.932515,-0.0298 -10.176283,-0.22188 z m 13.714876,-7.11893 c 1.738931,-0.19952 3.241488,-0.4424 3.339015,-0.53973 0.188195,-0.18782 -35.588761,-78.394196 -36.142671,-79.00581 -0.1827,-0.201733 -0.283199,15.459446 -0.229217,35.719758 l 0.09613,36.079002 3.392095,1.79128 c 9.295943,4.90897 19.949402,7.05645 29.544648,5.9555 z m 18.386338,-5.29176 C 106.71009,107.40352 117.3987,92.796887 120.18638,75.263256 120.91035,70.709672 120.6879,61.705535 119.7448,57.389331 117.39884,46.652852 112.74412,38.120076 105.06903,30.486543 102.77632,28.206253 99.609275,25.461589 98.03114,24.38729 95.001012,22.324561 89.487082,19.416137 86.838541,18.483546 L 85.259153,17.92742 v 8.377582 8.377582 l 2.513021,0.49851 c 5.364832,1.064226 10.71406,4.732637 12.865386,8.822865 0.86101,1.636996 1.00614,2.374129 1.00614,5.11017 0,2.736042 -0.14513,3.473174 -1.00614,5.110171 -2.015446,3.831885 -6.643054,7.205689 -11.797863,8.60135 -1.243768,0.33675 -4.252987,0.714943 -6.687154,0.84043 l -4.425758,0.228159 -0.09703,-24.024117 -0.09704,-24.024117 -1.696047,-0.337071 c -0.932826,-0.18539 -4.409722,-0.350458 -7.726436,-0.366818 -6.686891,-0.03299 -10.220288,0.492264 -16.381447,2.435151 -3.975677,1.253707 -11.320656,4.707308 -11.320656,5.32296 0,0.216042 8.353032,18.583795 18.562293,40.817229 l 18.562293,40.424424 0.09832,-15.853363 0.09831,-15.853364 h 3.764903 3.764903 v 2.821091 c 0,1.5516 0.06209,2.821092 0.137986,2.821092 0.07589,0 1.729538,-0.750799 3.674769,-1.668441 3.493119,-1.647844 8.384563,-3.221451 10.013642,-3.221451 0.894609,0 0.885131,-0.02803 1.5899,4.701819 0.18495,1.24128 0.30091,2.295405 0.25767,2.342499 -0.0432,0.04709 -1.594706,0.523492 -3.447719,1.058662 -4.642111,1.340692 -7.911201,3.021783 -10.247526,5.269671 l -1.978722,1.903821 -0.0012,8.06584 c -6.34e-4,4.436214 -0.112893,11.005774 -0.249464,14.599024 l -0.248312,6.53319 0.909038,-0.26082 c 0.499971,-0.14345 2.97344,-1.25928 5.496599,-2.47961 z M 32.493244,67.733333 c 0,-21.205204 -0.142721,-38.554917 -0.317158,-38.554917 -0.834826,0 -6.606719,6.76387 -9.173892,10.750548 -2.790062,4.332811 -5.649707,11.518782 -6.952344,17.470467 -0.992289,4.533717 -0.992289,16.134088 0,20.667804 1.533136,7.004823 4.156367,13.171971 8.115234,19.078705 2.232056,3.33029 7.310566,9.14231 7.988491,9.14231 0.199417,0 0.339669,-15.919691 0.339669,-38.554917 z M 89.503717,54.488647 c 4.690835,-2.089841 6.095846,-5.446582 3.486319,-8.329239 -1.236487,-1.365907 -4.368298,-3.069897 -6.69441,-3.64237 l -1.036473,-0.255083 v 6.852174 6.852174 l 1.036473,-0.255083 c 0.570061,-0.140296 2.013702,-0.690454 3.208091,-1.222573 z"
     id="path1" /></svg>
