<svg xmlns="http://www.w3.org/2000/svg" fill="none" viewBox="0 0 512 512">
<path
     d="M 225.2374,479.3948 C 156.47619,470.1217 94.729977,429.90149 58.739744,370.94167 20.693859,308.61424 16.737348,227.33545 48.493552,160.45365 60.883897,134.35832 76.292084,113.50486 98.968686,92.140529 129.99351,62.911081 169.23256,43.001428 212.74956,34.408809 c 23.16818,-4.574658 64.76351,-4.574658 87.9317,0 71.75579,14.168489 133.07431,60.906525 163.70356,124.777671 24.52683,51.14578 28.48103,114.50731 10.46114,167.62797 -24.67893,72.75082 -85.92241,128.87883 -161.22678,147.76005 -26.71682,6.69877 -60.70665,8.55256 -88.38178,4.8203 z m 56.01266,-28.56119 6.64942,-0.93072 -67.78154,-145.27534 c -37.27985,-79.90143 -68.1227,-145.61036 -68.53967,-146.01983 -0.41697,-0.40947 -0.59385,58.89457 -0.39308,131.78675 l 0.36504,132.53123 8.58491,4.69189 c 19.50928,10.66236 46.80865,19.73905 68.6793,22.835 10.25654,1.45189 43.08096,1.6904 52.43562,0.38102 z m 63.91501,-19.37396 c 8.90633,-4.22638 15.98888,-8.1857 15.73901,-8.79848 -0.24987,-0.61278 -8.98557,-8.84758 -19.41266,-18.29954 l -18.95835,-17.18539 v 26.89145 26.89146 l 3.21934,-0.90759 c 1.77064,-0.49917 10.50634,-4.36553 19.41266,-8.59191 z M 400.8754,391.0243 c 20.47642,-21.03361 35.88432,-45.76872 45.15995,-72.49764 12.96307,-37.35473 13.74218,-80.06482 2.16585,-118.7304 C 436.81753,161.77418 409.40949,123.57325 375.47336,98.429262 365.12487,90.761847 328.98947,71.230221 325.1525,71.230221 c -0.68443,0 -1.07089,13.666546 -0.85881,30.370099 l 0.38561,30.37011 10.19791,2.54235 c 21.66398,5.40086 39.89332,18.32597 47.26448,33.51181 5.42477,11.17596 5.42477,25.67061 0,36.84657 -10.66408,21.96982 -39.74428,36.37536 -73.43027,36.37536 H 293.9167 V 152.18689 63.127264 l -3.93475,-0.930821 c -2.16412,-0.511952 -13.93236,-1.297272 -26.15166,-1.745156 -35.84698,-1.313928 -62.44728,4.132792 -93.974,19.242271 l -17.46441,8.369982 1.7254,3.961311 c 0.94898,2.178722 32.30916,69.490419 69.6893,149.581559 l 67.96389,145.62025 0.89539,-9.4096 c 0.49247,-5.17527 0.97537,-32.96247 1.07311,-61.74932 l 0.17773,-52.33973 15.3813,0.0208 c 25.73551,0.0347 44.60667,6.31566 59.71403,19.87469 10.00381,8.97853 14.70911,16.77038 16.64516,27.56394 3.62248,20.1954 -8.3631,40.2011 -31.0628,51.84837 -4.25183,2.18163 -7.73213,4.38019 -7.734,4.8857 -0.004,1.18217 38.85198,36.31587 40.16378,36.31587 0.54351,0 6.77656,-5.94587 13.85123,-13.21305 z m -280.14419,-135.37557 -0.0564,-142.96825 -11.03242,11.30537 c -24.876532,25.49201 -43.063058,61.21424 -49.999555,98.20983 -3.291031,17.55262 -3.161049,50.53622 0.268878,68.22911 5.33151,27.50197 14.96328,50.82025 30.393105,73.58094 7.755593,11.44035 27.805512,34.61125 29.949332,34.61125 0.29343,0 0.50812,-64.33572 0.47709,-142.96825 z m 213.55244,83.98285 c 14.0006,-5.14771 23.70486,-15.7276 21.88585,-23.86064 -1.73015,-7.73565 -16.07687,-18.3144 -28.01847,-20.65977 l -4.18714,-0.82238 v 24.06223 c 0,14.47954 0.54844,24.06222 1.37715,24.06222 0.75742,0 4.7816,-1.25174 8.94261,-2.78166 z m 3.27302,-133.3427 c 4.7217,-2.22385 10.82382,-6.35354 13.56026,-9.17709 10.00575,-10.32426 4.8998,-21.8105 -13.56026,-30.50492 -14.26228,-6.71732 -13.59278,-7.69456 -13.59278,19.84101 0,27.53557 -0.6695,26.55832 13.59278,19.841 z"
     id="path1"
     style="fill:#ee0000;fill-opacity:1" />
</svg>